<svg viewBox="0 0 120.0 120.0" width="120" height="120" xmlns="http://www.w3.org/2000/svg" role="img" aria-label="TATSUKI">
  <rect x="0" y="0" width="120.0" height="120.0" rx="21.6" fill="#ffffff"/>
  <g shape-rendering="crispEdges" transform="translate(13.85,0) skewX(-13)">
    <rect x="14.0" y="51.4" width="3.0" height="3.0" fill="#14223b"/>
    <rect x="14.0" y="51.4" width="3.0" height="0.7" fill="#41506b"/>
    <rect x="17.55" y="51.4" width="3.0" height="3.0" fill="#14223b"/>
    <rect x="17.55" y="51.4" width="3.0" height="0.7" fill="#41506b"/>
    <rect x="21.1" y="51.4" width="3.0" height="3.0" fill="#14223b"/>
    <rect x="21.1" y="51.4" width="3.0" height="0.7" fill="#41506b"/>
    <rect x="17.55" y="54.95" width="3.0" height="3.0" fill="#14223b"/>
    <rect x="17.55" y="54.95" width="3.0" height="0.7" fill="#41506b"/>
    <rect x="17.55" y="58.5" width="3.0" height="3.0" fill="#14223b"/>
    <rect x="17.55" y="58.5" width="3.0" height="0.7" fill="#41506b"/>
    <rect x="17.55" y="62.05" width="3.0" height="3.0" fill="#14223b"/>
    <rect x="17.55" y="62.05" width="3.0" height="0.7" fill="#41506b"/>
    <rect x="17.55" y="65.6" width="3.0" height="3.0" fill="#14223b"/>
    <rect x="17.55" y="65.6" width="3.0" height="0.7" fill="#41506b"/>
    <rect x="28.2" y="51.4" width="3.0" height="3.0" fill="#14223b"/>
    <rect x="28.2" y="51.4" width="3.0" height="0.7" fill="#41506b"/>
    <rect x="24.65" y="54.95" width="3.0" height="3.0" fill="#14223b"/>
    <rect x="24.65" y="54.95" width="3.0" height="0.7" fill="#41506b"/>
    <rect x="31.75" y="54.95" width="3.0" height="3.0" fill="#14223b"/>
    <rect x="31.75" y="54.95" width="3.0" height="0.7" fill="#41506b"/>
    <rect x="24.65" y="58.5" width="3.0" height="3.0" fill="#14223b"/>
    <rect x="24.65" y="58.5" width="3.0" height="0.7" fill="#41506b"/>
    <rect x="28.2" y="58.5" width="3.0" height="3.0" fill="#14223b"/>
    <rect x="28.2" y="58.5" width="3.0" height="0.7" fill="#41506b"/>
    <rect x="31.75" y="58.5" width="3.0" height="3.0" fill="#14223b"/>
    <rect x="31.75" y="58.5" width="3.0" height="0.7" fill="#41506b"/>
    <rect x="24.65" y="62.05" width="3.0" height="3.0" fill="#14223b"/>
    <rect x="24.65" y="62.05" width="3.0" height="0.7" fill="#41506b"/>
    <rect x="31.75" y="62.05" width="3.0" height="3.0" fill="#14223b"/>
    <rect x="31.75" y="62.05" width="3.0" height="0.7" fill="#41506b"/>
    <rect x="24.65" y="65.6" width="3.0" height="3.0" fill="#14223b"/>
    <rect x="24.65" y="65.6" width="3.0" height="0.7" fill="#41506b"/>
    <rect x="31.75" y="65.6" width="3.0" height="3.0" fill="#14223b"/>
    <rect x="31.75" y="65.6" width="3.0" height="0.7" fill="#41506b"/>
    <rect x="35.3" y="51.4" width="3.0" height="3.0" fill="#14223b"/>
    <rect x="35.3" y="51.4" width="3.0" height="0.7" fill="#41506b"/>
    <rect x="38.85" y="51.4" width="3.0" height="3.0" fill="#14223b"/>
    <rect x="38.85" y="51.4" width="3.0" height="0.7" fill="#41506b"/>
    <rect x="42.4" y="51.4" width="3.0" height="3.0" fill="#14223b"/>
    <rect x="42.4" y="51.4" width="3.0" height="0.7" fill="#41506b"/>
    <rect x="38.85" y="54.95" width="3.0" height="3.0" fill="#14223b"/>
    <rect x="38.85" y="54.95" width="3.0" height="0.7" fill="#41506b"/>
    <rect x="38.85" y="58.5" width="3.0" height="3.0" fill="#14223b"/>
    <rect x="38.85" y="58.5" width="3.0" height="0.7" fill="#41506b"/>
    <rect x="38.85" y="62.05" width="3.0" height="3.0" fill="#14223b"/>
    <rect x="38.85" y="62.05" width="3.0" height="0.7" fill="#41506b"/>
    <rect x="38.85" y="65.6" width="3.0" height="3.0" fill="#14223b"/>
    <rect x="38.85" y="65.6" width="3.0" height="0.7" fill="#41506b"/>
    <rect x="45.95" y="51.4" width="3.0" height="3.0" fill="#14223b"/>
    <rect x="45.95" y="51.4" width="3.0" height="0.7" fill="#41506b"/>
    <rect x="49.5" y="51.4" width="3.0" height="3.0" fill="#14223b"/>
    <rect x="49.5" y="51.4" width="3.0" height="0.7" fill="#41506b"/>
    <rect x="53.05" y="51.4" width="3.0" height="3.0" fill="#14223b"/>
    <rect x="53.05" y="51.4" width="3.0" height="0.7" fill="#41506b"/>
    <rect x="45.95" y="54.95" width="3.0" height="3.0" fill="#14223b"/>
    <rect x="45.95" y="54.95" width="3.0" height="0.7" fill="#41506b"/>
    <rect x="45.95" y="58.5" width="3.0" height="3.0" fill="#14223b"/>
    <rect x="45.95" y="58.5" width="3.0" height="0.7" fill="#41506b"/>
    <rect x="49.5" y="58.5" width="3.0" height="3.0" fill="#14223b"/>
    <rect x="49.5" y="58.5" width="3.0" height="0.7" fill="#41506b"/>
    <rect x="53.05" y="58.5" width="3.0" height="3.0" fill="#14223b"/>
    <rect x="53.05" y="58.5" width="3.0" height="0.7" fill="#41506b"/>
    <rect x="53.05" y="62.05" width="3.0" height="3.0" fill="#14223b"/>
    <rect x="53.05" y="62.05" width="3.0" height="0.7" fill="#41506b"/>
    <rect x="45.95" y="65.6" width="3.0" height="3.0" fill="#14223b"/>
    <rect x="45.95" y="65.6" width="3.0" height="0.7" fill="#41506b"/>
    <rect x="49.5" y="65.6" width="3.0" height="3.0" fill="#14223b"/>
    <rect x="49.5" y="65.6" width="3.0" height="0.7" fill="#41506b"/>
    <rect x="53.05" y="65.6" width="3.0" height="3.0" fill="#14223b"/>
    <rect x="53.05" y="65.6" width="3.0" height="0.7" fill="#41506b"/>
    <rect x="56.6" y="51.4" width="3.0" height="3.0" fill="#14223b"/>
    <rect x="56.6" y="51.4" width="3.0" height="0.7" fill="#41506b"/>
    <rect x="63.7" y="51.4" width="3.0" height="3.0" fill="#14223b"/>
    <rect x="63.7" y="51.4" width="3.0" height="0.7" fill="#41506b"/>
    <rect x="56.6" y="54.95" width="3.0" height="3.0" fill="#14223b"/>
    <rect x="56.6" y="54.95" width="3.0" height="0.7" fill="#41506b"/>
    <rect x="63.7" y="54.95" width="3.0" height="3.0" fill="#14223b"/>
    <rect x="63.7" y="54.95" width="3.0" height="0.7" fill="#41506b"/>
    <rect x="56.6" y="58.5" width="3.0" height="3.0" fill="#14223b"/>
    <rect x="56.6" y="58.5" width="3.0" height="0.7" fill="#41506b"/>
    <rect x="63.7" y="58.5" width="3.0" height="3.0" fill="#14223b"/>
    <rect x="63.7" y="58.5" width="3.0" height="0.7" fill="#41506b"/>
    <rect x="56.6" y="62.05" width="3.0" height="3.0" fill="#14223b"/>
    <rect x="56.6" y="62.05" width="3.0" height="0.7" fill="#41506b"/>
    <rect x="63.7" y="62.05" width="3.0" height="3.0" fill="#14223b"/>
    <rect x="63.7" y="62.05" width="3.0" height="0.7" fill="#41506b"/>
    <rect x="56.6" y="65.6" width="3.0" height="3.0" fill="#14223b"/>
    <rect x="56.6" y="65.6" width="3.0" height="0.7" fill="#41506b"/>
    <rect x="60.15" y="65.6" width="3.0" height="3.0" fill="#14223b"/>
    <rect x="60.15" y="65.6" width="3.0" height="0.7" fill="#41506b"/>
    <rect x="63.7" y="65.6" width="3.0" height="3.0" fill="#14223b"/>
    <rect x="63.7" y="65.6" width="3.0" height="0.7" fill="#41506b"/>
    <rect x="67.25" y="51.4" width="3.0" height="3.0" fill="#14223b"/>
    <rect x="67.25" y="51.4" width="3.0" height="0.7" fill="#41506b"/>
    <rect x="74.35" y="51.4" width="3.0" height="3.0" fill="#14223b"/>
    <rect x="74.35" y="51.4" width="3.0" height="0.7" fill="#41506b"/>
    <rect x="67.25" y="54.95" width="3.0" height="3.0" fill="#14223b"/>
    <rect x="67.25" y="54.95" width="3.0" height="0.7" fill="#41506b"/>
    <rect x="70.8" y="54.95" width="3.0" height="3.0" fill="#14223b"/>
    <rect x="70.8" y="54.95" width="3.0" height="0.7" fill="#41506b"/>
    <rect x="67.25" y="58.5" width="3.0" height="3.0" fill="#14223b"/>
    <rect x="67.25" y="58.5" width="3.0" height="0.7" fill="#41506b"/>
    <rect x="67.25" y="62.05" width="3.0" height="3.0" fill="#14223b"/>
    <rect x="67.25" y="62.05" width="3.0" height="0.7" fill="#41506b"/>
    <rect x="70.8" y="62.05" width="3.0" height="3.0" fill="#14223b"/>
    <rect x="70.8" y="62.05" width="3.0" height="0.7" fill="#41506b"/>
    <rect x="67.25" y="65.6" width="3.0" height="3.0" fill="#14223b"/>
    <rect x="67.25" y="65.6" width="3.0" height="0.7" fill="#41506b"/>
    <rect x="74.35" y="65.6" width="3.0" height="3.0" fill="#14223b"/>
    <rect x="74.35" y="65.6" width="3.0" height="0.7" fill="#41506b"/>
    <rect x="77.9" y="51.4" width="3.0" height="3.0" fill="#14223b"/>
    <rect x="77.9" y="51.4" width="3.0" height="0.7" fill="#41506b"/>
    <rect x="81.45" y="51.4" width="3.0" height="3.0" fill="#14223b"/>
    <rect x="81.45" y="51.4" width="3.0" height="0.7" fill="#41506b"/>
    <rect x="85.0" y="51.4" width="3.0" height="3.0" fill="#14223b"/>
    <rect x="85.0" y="51.4" width="3.0" height="0.7" fill="#41506b"/>
    <rect x="81.45" y="54.95" width="3.0" height="3.0" fill="#14223b"/>
    <rect x="81.45" y="54.95" width="3.0" height="0.7" fill="#41506b"/>
    <rect x="81.45" y="58.5" width="3.0" height="3.0" fill="#14223b"/>
    <rect x="81.45" y="58.5" width="3.0" height="0.7" fill="#41506b"/>
    <rect x="81.45" y="62.05" width="3.0" height="3.0" fill="#14223b"/>
    <rect x="81.45" y="62.05" width="3.0" height="0.7" fill="#41506b"/>
    <rect x="77.9" y="65.6" width="3.0" height="3.0" fill="#14223b"/>
    <rect x="77.9" y="65.6" width="3.0" height="0.7" fill="#41506b"/>
    <rect x="81.45" y="65.6" width="3.0" height="3.0" fill="#14223b"/>
    <rect x="81.45" y="65.6" width="3.0" height="0.7" fill="#41506b"/>
    <rect x="85.0" y="65.6" width="3.0" height="3.0" fill="#14223b"/>
    <rect x="85.0" y="65.6" width="3.0" height="0.7" fill="#41506b"/>
  </g>
</svg>